<svg xmlns="http://www.w3.org/2000/svg" xmlns:xlink="http://www.w3.org/1999/xlink" version="1.1" id="&#1057;&#1083;&#1086;&#1081;_1" x="0px" y="0px" viewBox="0 0 100 100" enable-background="new 0 0 100 100" xml:space="preserve" height="100px" width="100px">
<path d="M94.9,46.7c0-0.1,0-0.1-0.1-0.2c0-0.1-0.1-0.2-0.2-0.3c0,0,0-0.1-0.1-0.1c-0.1-0.1-0.2-0.3-0.3-0.4l-15-15  c-0.1-0.1-0.2-0.2-0.4-0.3c0,0-0.1,0-0.1,0c-0.1-0.1-0.2-0.1-0.3-0.2c0,0-0.1,0-0.1,0c-0.1,0-0.2-0.1-0.3-0.1c-0.2,0-0.3,0-0.5,0H60  v-7.5c0-0.2,0-0.3,0-0.5c0-0.1-0.1-0.2-0.1-0.3c0-0.1,0-0.1-0.1-0.2c0-0.1-0.1-0.2-0.2-0.3c0,0,0-0.1-0.1-0.1  c-0.1-0.1-0.2-0.3-0.3-0.4l-15-15c-0.1-0.1-0.2-0.2-0.4-0.3c0,0-0.1,0-0.1,0c-0.1-0.1-0.2-0.1-0.3-0.2c0,0-0.1,0-0.1,0  c-0.1,0-0.2-0.1-0.3-0.1c-0.2,0-0.3,0-0.5,0h-35C6.1,5,5,6.1,5,7.5v60C5,68.9,6.1,70,7.5,70H40v22.5c0,1.4,1.1,2.5,2.5,2.5h50  c1.4,0,2.5-1.1,2.5-2.5v-45c0-0.2,0-0.3,0-0.5C94.9,46.9,94.9,46.8,94.9,46.7z M80,38.5l6.5,6.5H80V38.5z M45,13.5l6.5,6.5H45V13.5z   M40,32.5V65H10V10h30v12.5c0,1.4,1.1,2.5,2.5,2.5H55v5H42.5C41.1,30,40,31.1,40,32.5z M90,90H45V35h30v12.5c0,1.4,1.1,2.5,2.5,2.5  H90V90z"/>
</svg>