<?xml version="1.0" encoding="utf-8"?>
<!-- Generator: Adobe Illustrator 18.1.1, SVG Export Plug-In . SVG Version: 6.00 Build 0)  -->
<svg version="1.1" id="Your_Icon" xmlns="http://www.w3.org/2000/svg" xmlns:xlink="http://www.w3.org/1999/xlink" x="0px" y="0px"
	 viewBox="-255 347 100 100" enable-background="new -255 347 100 100" xml:space="preserve">
<g>
	<g>
		<path d="M-173.2,351h-61.1c-1.3,0-2.4,1.1-2.4,2.4v86.2c0,1.4,1.1,2.4,2.4,2.4h61.1c1.3,0,2.4-1.1,2.4-2.4v-86.2
			C-170.7,352.1-171.8,351-173.2,351z M-175.6,437.2h-56.2v-81.3h56.2C-175.6,355.9-175.6,437.2-175.6,437.2z"/>
		<path d="M-224.9,369.5h42.4c1.1,0,2-0.9,2-2c0-1.1-0.9-2-2-2h-42.4c-1.1,0-2,0.9-2,2C-226.9,368.6-226,369.5-224.9,369.5z"/>
		<path d="M-224.9,380.6h42.4c1.1,0,2-0.9,2-2s-0.9-2-2-2h-42.4c-1.1,0-2,0.9-2,2C-226.9,379.7-226,380.6-224.9,380.6z"/>
	</g>
	<path d="M-199.8,398.1c0.8,0,1.4,0.6,1.4,1.4v6.4l6.4,0c0.8,0,1.4,0.6,1.4,1.4l0,7.8c0,0.8-0.6,1.4-1.4,1.4h-6.4v6.4
		c0,0.8-0.6,1.4-1.4,1.4l-7.8,0c-0.8,0-1.4-0.6-1.4-1.4v-6.4h-6.4c-0.8,0-1.4-0.6-1.4-1.4l0-7.8c0-0.8,0.6-1.4,1.4-1.4h6.4v-6.4
		c0-0.8,0.6-1.4,1.4-1.4L-199.8,398.1z"/>
</g>
</svg>
