<svg xmlns="http://www.w3.org/2000/svg" xmlns:xlink="http://www.w3.org/1999/xlink" version="1.1" id="Layer_1" x="0px" y="0px" viewBox="5.0 -10.0 100.0 135.0" enable-background="new 0 0 100 100" xml:space="preserve" height="100px" width="100px">
<g>
	<rect x="19.9" y="37.9" width="17.4" height="7"/>
	<rect x="19.9" y="54.1" width="30.2" height="7"/>
	<rect x="19.9" y="71.5" width="46.5" height="5.8"/>
	<path d="M60.7,32.1c0,5.8,0,24.4,0,25.5h14.7l0-24.9l22.1-0.1L68.1,2.9L38.7,32.1H60.7z"/>
	<path d="M75.7,89h-65V25.1h29.5c2.4-3.5,4.9-5.8,7-9.3H5.7c-2,0-3.2,2.2-3.2,4.2v73.6c0,2,1.2,3.5,3.2,3.5h74.5   c2,0,3.6-1.5,3.6-3.5V61.1h-8.1V89z"/>
</g>
</svg>