<svg xmlns="http://www.w3.org/2000/svg" xmlns:xlink="http://www.w3.org/1999/xlink" version="1.1" id="Your_Icon" x="0px" y="0px" width="100px" height="100px" viewBox="5.0 -10.0 100.0 135.0" enable-background="new 0 0 100 100" xml:space="preserve">
<g>
	<g>
		<g>
			<g>
			</g>
		</g>
		<g>
		</g>
	</g>
</g>
<g>
	<g>
		<path d="M80.08,5.109H19.918c-1.329,0-2.408,1.078-2.408,2.408v84.967c0,1.331,1.079,2.408,2.408,2.408H80.08    c1.33,0,2.408-1.077,2.408-2.408V7.517C82.488,6.187,81.41,5.109,80.08,5.109z M77.673,90.075H22.327V9.925h55.346V90.075z"/>
		<path d="M29.13,23.326h41.735c1.107,0,2.007-0.898,2.007-2.007c0-1.108-0.899-2.006-2.007-2.006H29.13    c-1.11,0-2.007,0.898-2.007,2.006C27.124,22.427,28.021,23.326,29.13,23.326z"/>
		<path d="M29.13,34.295h41.735c1.107,0,2.007-0.898,2.007-2.007s-0.899-2.006-2.007-2.006H29.13c-1.11,0-2.007,0.898-2.007,2.006    S28.021,34.295,29.13,34.295z"/>
	</g>
	<path fill="#000000" d="M53.854,51.479c0.756-0.004,1.364,0.611,1.367,1.367v6.34l6.336-0.002c0.759,0.004,1.374,0.613,1.37,1.37   l0.004,7.712c-0.004,0.755-0.615,1.368-1.37,1.368h-6.343v6.34c0.003,0.756-0.605,1.365-1.364,1.368l-7.712-0.003   c-0.756,0.003-1.367-0.613-1.367-1.367v-6.338h-6.339c-0.756,0-1.37-0.613-1.367-1.37l-0.003-7.71c0-0.757,0.614-1.368,1.37-1.366   h6.336v-6.343c0-0.755,0.614-1.369,1.37-1.369L53.854,51.479z"/>
</g>
<text x="0.0" y="117.5" font-size="5.0" font-weight="bold" font-family="Helvetica Neue, Helvetica, Arial-Unicode, Arial, Sans-serif" fill="#000000">Created by Blaise Sewell</text><text x="0.0" y="122.5" font-size="5.0" font-weight="bold" font-family="Helvetica Neue, Helvetica, Arial-Unicode, Arial, Sans-serif" fill="#000000">from the Noun Project</text></svg>