<svg xmlns:dc="http://purl.org/dc/elements/1.1/" xmlns:cc="http://creativecommons.org/ns#" xmlns:rdf="http://www.w3.org/1999/02/22-rdf-syntax-ns#" xmlns:svg="http://www.w3.org/2000/svg" xmlns="http://www.w3.org/2000/svg" xmlns:sodipodi="http://sodipodi.sourceforge.net/DTD/sodipodi-0.dtd" xmlns:inkscape="http://www.inkscape.org/namespaces/inkscape" version="1.1" width="100" height="100" viewBox="0 0 100 100" id="svg2" xml:space="preserve" inkscape:version="0.48.4 r9939" sodipodi:docname="DOCUMENT_C_REJECT.svg"><sodipodi:namedview pagecolor="#ffffff" bordercolor="#666666" borderopacity="1" objecttolerance="10" gridtolerance="10" guidetolerance="10" inkscape:pageopacity="0" inkscape:pageshadow="2" inkscape:window-width="1366" inkscape:window-height="705" id="namedview7" showgrid="false" inkscape:zoom="3.337544" inkscape:cx="15.850249" inkscape:cy="62.302789" inkscape:window-x="-8" inkscape:window-y="-8" inkscape:window-maximized="1" inkscape:current-layer="svg2" showguides="true" inkscape:guide-bbox="true"/><defs id="defs28"/><path d="m 8.1505932,100.21929 83.6988138,0 0,-82.899039 -17.483713,-17.53953914 -66.2151008,0 m 2.9354028,3.29132214 60.047479,0 0,17.240466 17.554494,0 -0.274024,76.615466 -77.327949,0.08353 z" id="polygon15" inkscape:connector-curvature="0" sodipodi:nodetypes="cccccccccccc"/><metadata id="metadata2987"><rdf:RDF><cc:Work rdf:about=""><dc:title/><dc:format>image/svg+xml</dc:format><dc:type rdf:resource="http://purl.org/dc/dcmitype/StillImage"/></cc:Work></rdf:RDF></metadata><path d="m 29.260994,38.112273 12.458094,0 0,-3.241518 10.642977,0 0,3.241518 c 4.310204,0 8.147895,0 12.458098,0 l 0,4.905349 -35.559169,0 z" id="path3867" style="fill:#000000;stroke:none" inkscape:connector-curvature="0" sodipodi:nodetypes="ccccccccc"/><path style="fill:#000000;fill-opacity:1" d="m 32.513651,45.097115 29.655632,0 -3.525068,30.744918 -22.605497,0 m 21.515631,-27.327283 -2.951244,0 -1.726334,24.961407 2.249634,0 z m -8.891601,0.02139 -2.951245,0 0.387497,24.956323 2.249635,0 z m -8.891601,0.197644 -2.951245,0 2.501328,24.909336 2.249635,0 z" id="rect2983" inkscape:connector-curvature="0" sodipodi:nodetypes="ccccccccccccccccccc"/></svg>