<svg xmlns:dc="http://purl.org/dc/elements/1.1/" xmlns:cc="http://creativecommons.org/ns#" xmlns:rdf="http://www.w3.org/1999/02/22-rdf-syntax-ns#" xmlns:svg="http://www.w3.org/2000/svg" xmlns="http://www.w3.org/2000/svg" xmlns:sodipodi="http://sodipodi.sourceforge.net/DTD/sodipodi-0.dtd" xmlns:inkscape="http://www.inkscape.org/namespaces/inkscape" version="1.1" width="100" height="100" viewBox="0 0 100 100" id="svg2" xml:space="preserve" inkscape:version="0.48.4 r9939" sodipodi:docname="DOCUMENT_C_DOWNLOAD.svg"><sodipodi:namedview pagecolor="#ffffff" bordercolor="#666666" borderopacity="1" objecttolerance="10" gridtolerance="10" guidetolerance="10" inkscape:pageopacity="0" inkscape:pageshadow="2" inkscape:window-width="1366" inkscape:window-height="705" id="namedview7" showgrid="false" inkscape:zoom="1.18" inkscape:cx="-157.96005" inkscape:cy="90.443743" inkscape:window-x="-8" inkscape:window-y="-8" inkscape:window-maximized="1" inkscape:current-layer="svg2" showguides="true" inkscape:guide-bbox="true"/><defs id="defs28"/><path d="m 8.1505932,100.21929 83.6988138,0 0,-82.899039 -17.483713,-17.53953914 -66.2151008,0 m 2.9354028,3.29132214 60.047479,0 0,17.240466 17.554494,0 -0.274024,76.615466 -77.327949,0.08353 z" id="polygon15" inkscape:connector-curvature="0" sodipodi:nodetypes="cccccccccccc"/><metadata id="metadata2987"><rdf:RDF><cc:Work rdf:about=""><dc:title/><dc:format>image/svg+xml</dc:format><dc:type rdf:resource="http://purl.org/dc/dcmitype/StillImage"/></cc:Work></rdf:RDF></metadata><g transform="matrix(0.55932203,0,0,0.55932203,22.033898,27.872696)" id="g2999"><path style="fill:#000000" inkscape:connector-curvature="0" id="path3" d="m 0,50.166 c 0,-3.124 15.625,-24.999 50,-24.999 34.375,0 50,21.875 50,25 0,3.125 -15.625,25 -50,25 C 15.625,75.167 0,53.291 0,50.166 z M 50,29.793 c -11.251,0 -20.372,9.121 -20.372,20.373 0,11.251 9.121,20.373 20.372,20.373 11.252,0 20.373,-9.121 20.373,-20.373 C 70.373,38.915 61.252,29.793 50,29.793 z"/><path sodipodi:nodetypes="sssss" style="fill:#000000" inkscape:connector-curvature="0" id="path5" d="m 61.498,50.167 c 0,6.349 -5.148,11.498 -11.499,11.498 -6.351,0 -11.498,-5.148 -11.498,-11.498 0,-6.351 5.148,-11.498 11.498,-11.498 6.35,0 11.499,5.147 11.499,11.498 z"/></g></svg>